HIERARCHY
ROOT Hips
{
	OFFSET -338.882294 -555.210510 88.995560
	CHANNELS 6 Xposition Yposition Zposition Zrotation Yrotation Xrotation
	JOINT Spine
	{
		OFFSET 0.000000 2.080078 8.814247
		CHANNELS 6 Xposition Yposition Zposition Zrotation Yrotation Xrotation
		JOINT Spine1
		{
			OFFSET 0.000000 0.000000 8.844139
			CHANNELS 6 Xposition Yposition Zposition Zrotation Yrotation Xrotation
			JOINT Spine2
			{
				OFFSET 0.000000 0.000000 11.682266
				CHANNELS 6 Xposition Yposition Zposition Zrotation Yrotation Xrotation
				JOINT Spine3
				{
					OFFSET 0.000000 0.000000 11.746704
					CHANNELS 6 Xposition Yposition Zposition Zrotation Yrotation Xrotation
					JOINT Neck
					{
						OFFSET 0.000000 0.000000 17.658264
						CHANNELS 6 Xposition Yposition Zposition Zrotation Yrotation Xrotation
						JOINT Neck1
						{
							OFFSET 0.000000 0.000000 5.101517
							CHANNELS 6 Xposition Yposition Zposition Zrotation Yrotation Xrotation
							JOINT Head
							{
								OFFSET 0.000000 0.000000 5.101517
								CHANNELS 6 Xposition Yposition Zposition Zrotation Yrotation Xrotation
								JOINT HeadEnd
								{
									OFFSET 0.000000 0.000000 11.655090
									CHANNELS 6 Xposition Yposition Zposition Zrotation Yrotation Xrotation
									End Site
									{
										OFFSET 0.000000 0.000000 0.100006
									}
								}
							}
						}
					}
					JOINT RightShoulder
					{
						OFFSET -2.625397 0.000000 11.175217
						CHANNELS 6 Xposition Yposition Zposition Zrotation Yrotation Xrotation
						JOINT RightArm
						{
							OFFSET 0.000000 0.000000 10.434723
							CHANNELS 6 Xposition Yposition Zposition Zrotation Yrotation Xrotation
							JOINT RightForeArm
							{
								OFFSET 0.000000 0.000000 29.628418
								CHANNELS 6 Xposition Yposition Zposition Zrotation Yrotation Xrotation
								JOINT RightHand
								{
									OFFSET 0.000000 0.000000 22.857605
									CHANNELS 6 Xposition Yposition Zposition Zrotation Yrotation Xrotation
									JOINT RightHandThumb1
									{
										OFFSET -2.867310 -2.944275 3.959564
										CHANNELS 6 Xposition Yposition Zposition Zrotation Yrotation Xrotation
										JOINT RightHandThumb2
										{
											OFFSET 0.000000 0.000000 3.350403
											CHANNELS 6 Xposition Yposition Zposition Zrotation Yrotation Xrotation
											JOINT RightHandThumb3
											{
												OFFSET 0.000000 0.000000 3.756516
												CHANNELS 6 Xposition Yposition Zposition Zrotation Yrotation Xrotation
												JOINT RightHandThumb4
												{
													OFFSET 0.000000 0.000000 3.147339
													CHANNELS 6 Xposition Yposition Zposition Zrotation Yrotation Xrotation
													End Site
													{
														OFFSET 0.000000 0.000000 0.100006
													}
												}
											}
										}
									}
									JOINT RightHandIndex1
									{
										OFFSET -0.086761 -2.345276 10.030899
										CHANNELS 6 Xposition Yposition Zposition Zrotation Yrotation Xrotation
										JOINT RightHandIndex2
										{
											OFFSET 0.000000 0.000000 4.061096
											CHANNELS 6 Xposition Yposition Zposition Zrotation Yrotation Xrotation
											JOINT RightHandIndex3
											{
												OFFSET 0.000000 0.000000 3.248871
												CHANNELS 6 Xposition Yposition Zposition Zrotation Yrotation Xrotation
												JOINT RightHandIndex4
												{
													OFFSET 0.000000 0.000000 2.639709
													CHANNELS 6 Xposition Yposition Zposition Zrotation Yrotation Xrotation
													End Site
													{
														OFFSET 0.000000 0.000000 0.100006
													}
												}
											}
										}
									}
									JOINT RightHandMiddle1
									{
										OFFSET 0.104095 -0.006775 9.502945
										CHANNELS 6 Xposition Yposition Zposition Zrotation Yrotation Xrotation
										JOINT RightHandMiddle2
										{
											OFFSET 0.000000 0.000000 4.568726
											CHANNELS 6 Xposition Yposition Zposition Zrotation Yrotation Xrotation
											JOINT RightHandMiddle3
											{
												OFFSET 0.000000 0.000000 3.654984
												CHANNELS 6 Xposition Yposition Zposition Zrotation Yrotation Xrotation
												JOINT RightHandMiddle4
												{
													OFFSET 0.000000 0.000000 2.741241
													CHANNELS 6 Xposition Yposition Zposition Zrotation Yrotation Xrotation
													End Site
													{
														OFFSET 0.000000 0.000000 0.100006
													}
												}
											}
										}
									}
									JOINT RightHandRing1
									{
										OFFSET 0.086761 2.267456 8.921707
										CHANNELS 6 Xposition Yposition Zposition Zrotation Yrotation Xrotation
										JOINT RightHandRing2
										{
											OFFSET 0.000000 0.000000 4.061096
											CHANNELS 6 Xposition Yposition Zposition Zrotation Yrotation Xrotation
											JOINT RightHandRing3
											{
												OFFSET 0.000000 0.000000 3.654984
												CHANNELS 6 Xposition Yposition Zposition Zrotation Yrotation Xrotation
												JOINT RightHandRing4
												{
													OFFSET 0.000000 0.000000 2.741241
													CHANNELS 6 Xposition Yposition Zposition Zrotation Yrotation Xrotation
													End Site
													{
														OFFSET 0.000000 0.000000 0.100006
													}
												}
											}
										}
									}
									JOINT RightHandPinky1
									{
										OFFSET -0.173492 4.467224 7.976990
										CHANNELS 6 Xposition Yposition Zposition Zrotation Yrotation Xrotation
										JOINT RightHandPinky2
										{
											OFFSET 0.000000 0.000000 3.350403
											CHANNELS 6 Xposition Yposition Zposition Zrotation Yrotation Xrotation
											JOINT RightHandPinky3
											{
												OFFSET 0.000000 0.000000 2.842758
												CHANNELS 6 Xposition Yposition Zposition Zrotation Yrotation Xrotation
												JOINT RightHandPinky4
												{
													OFFSET 0.000000 0.000000 2.639709
													CHANNELS 6 Xposition Yposition Zposition Zrotation Yrotation Xrotation
													End Site
													{
														OFFSET 0.000000 0.000000 0.100006
													}
												}
											}
										}
									}
									JOINT RightForeArmEnd
									{
										OFFSET 0.000000 0.000000 0.000000
										CHANNELS 6 Xposition Yposition Zposition Zrotation Yrotation Xrotation
										End Site
										{
											OFFSET 0.000000 0.000000 0.100006
										}
									}
								}
								JOINT RightArmEnd
								{
									OFFSET 0.000000 0.000000 0.000000
									CHANNELS 6 Xposition Yposition Zposition Zrotation Yrotation Xrotation
									End Site
									{
										OFFSET 0.000000 0.000000 0.100006
									}
								}
							}
						}
					}
					JOINT LeftShoulder
					{
						OFFSET 2.625397 0.000000 11.175217
						CHANNELS 6 Xposition Yposition Zposition Zrotation Yrotation Xrotation
						JOINT LeftArm
						{
							OFFSET 0.000000 0.000000 10.813629
							CHANNELS 6 Xposition Yposition Zposition Zrotation Yrotation Xrotation
							JOINT LeftForeArm
							{
								OFFSET 0.000000 0.000000 28.724777
								CHANNELS 6 Xposition Yposition Zposition Zrotation Yrotation Xrotation
								JOINT LeftHand
								{
									OFFSET 0.644379 0.328857 25.716171
									CHANNELS 6 Xposition Yposition Zposition Zrotation Yrotation Xrotation
									JOINT LeftHandThumb1
									{
										OFFSET 2.867310 -2.944275 3.959564
										CHANNELS 6 Xposition Yposition Zposition Zrotation Yrotation Xrotation
										JOINT LeftHandThumb2
										{
											OFFSET 0.000000 0.000000 3.350403
											CHANNELS 6 Xposition Yposition Zposition Zrotation Yrotation Xrotation
											JOINT LeftHandThumb3
											{
												OFFSET 0.000000 0.000000 3.756516
												CHANNELS 6 Xposition Yposition Zposition Zrotation Yrotation Xrotation
												JOINT LeftHandThumb4
												{
													OFFSET 0.000000 0.000000 3.100006
													CHANNELS 6 Xposition Yposition Zposition Zrotation Yrotation Xrotation
													End Site
													{
														OFFSET 0.000000 0.000000 0.100006
													}
												}
											}
										}
									}
									JOINT LeftHandIndex1
									{
										OFFSET 0.086761 -2.345276 10.030899
										CHANNELS 6 Xposition Yposition Zposition Zrotation Yrotation Xrotation
										JOINT LeftHandIndex2
										{
											OFFSET 0.000000 0.000000 4.061096
											CHANNELS 6 Xposition Yposition Zposition Zrotation Yrotation Xrotation
											JOINT LeftHandIndex3
											{
												OFFSET 0.000000 0.000000 3.248871
												CHANNELS 6 Xposition Yposition Zposition Zrotation Yrotation Xrotation
												JOINT LeftHandIndex4
												{
													OFFSET 0.000000 0.000000 2.639709
													CHANNELS 6 Xposition Yposition Zposition Zrotation Yrotation Xrotation
													End Site
													{
														OFFSET 0.000000 0.000000 0.100006
													}
												}
											}
										}
									}
									JOINT LeftHandMiddle1
									{
										OFFSET -0.104095 -0.006775 9.502945
										CHANNELS 6 Xposition Yposition Zposition Zrotation Yrotation Xrotation
										JOINT LeftHandMiddle2
										{
											OFFSET 0.000000 0.000000 4.568726
											CHANNELS 6 Xposition Yposition Zposition Zrotation Yrotation Xrotation
											JOINT LeftHandMiddle3
											{
												OFFSET 0.000000 0.000000 3.654984
												CHANNELS 6 Xposition Yposition Zposition Zrotation Yrotation Xrotation
												JOINT LeftHandMiddle4
												{
													OFFSET 0.000000 0.000000 2.741241
													CHANNELS 6 Xposition Yposition Zposition Zrotation Yrotation Xrotation
													End Site
													{
														OFFSET 0.000000 0.000000 0.100006
													}
												}
											}
										}
									}
									JOINT LeftHandRing1
									{
										OFFSET -0.086761 2.267456 8.921707
										CHANNELS 6 Xposition Yposition Zposition Zrotation Yrotation Xrotation
										JOINT LeftHandRing2
										{
											OFFSET 0.000000 0.000000 4.061096
											CHANNELS 6 Xposition Yposition Zposition Zrotation Yrotation Xrotation
											JOINT LeftHandRing3
											{
												OFFSET 0.000000 0.000000 3.654984
												CHANNELS 6 Xposition Yposition Zposition Zrotation Yrotation Xrotation
												JOINT LeftHandRing4
												{
													OFFSET 0.000000 0.000000 2.741241
													CHANNELS 6 Xposition Yposition Zposition Zrotation Yrotation Xrotation
													End Site
													{
														OFFSET 0.000000 0.000000 0.100006
													}
												}
											}
										}
									}
									JOINT LeftHandPinky1
									{
										OFFSET 0.173492 4.467224 7.976990
										CHANNELS 6 Xposition Yposition Zposition Zrotation Yrotation Xrotation
										JOINT LeftHandPinky2
										{
											OFFSET 0.000000 0.000000 3.350403
											CHANNELS 6 Xposition Yposition Zposition Zrotation Yrotation Xrotation
											JOINT LeftHandPinky3
											{
												OFFSET 0.000000 0.000000 2.842758
												CHANNELS 6 Xposition Yposition Zposition Zrotation Yrotation Xrotation
												JOINT LeftHandPinky4
												{
													OFFSET 0.000000 0.000000 2.639709
													CHANNELS 6 Xposition Yposition Zposition Zrotation Yrotation Xrotation
													End Site
													{
														OFFSET 0.000000 0.000000 0.100006
													}
												}
											}
										}
									}
									JOINT LeftForeArmEnd
									{
										OFFSET 0.000000 0.000000 0.000000
										CHANNELS 6 Xposition Yposition Zposition Zrotation Yrotation Xrotation
										End Site
										{
											OFFSET 0.000000 0.000000 0.100006
										}
									}
								}
								JOINT LeftArmEnd
								{
									OFFSET 0.000000 0.000000 0.000000
									CHANNELS 6 Xposition Yposition Zposition Zrotation Yrotation Xrotation
									End Site
									{
										OFFSET 0.000000 0.000000 0.100006
									}
								}
							}
						}
					}
				}
			}
		}
	}
	JOINT RightUpLeg
	{
		OFFSET -11.289948 0.000000 0.000000
		CHANNELS 6 Xposition Yposition Zposition Zrotation Yrotation Xrotation
		JOINT RightLeg
		{
			OFFSET 0.000000 0.000000 -38.200321
			CHANNELS 6 Xposition Yposition Zposition Zrotation Yrotation Xrotation
			JOINT RightFoot
			{
				OFFSET 0.000000 0.000000 -39.900856
				CHANNELS 6 Xposition Yposition Zposition Zrotation Yrotation Xrotation
				JOINT RightToeBase
				{
					OFFSET 0.000000 -15.261658 0.000001
					CHANNELS 6 Xposition Yposition Zposition Zrotation Yrotation Xrotation
					JOINT RightToeBaseEnd
					{
						OFFSET 0.000000 -7.370728 0.000001
						CHANNELS 6 Xposition Yposition Zposition Zrotation Yrotation Xrotation
						End Site
						{
							OFFSET 0.000000 0.000000 0.100000
						}
					}
				}
				JOINT RightLegEnd
				{
					OFFSET 0.000000 0.000000 0.000000
					CHANNELS 6 Xposition Yposition Zposition Zrotation Yrotation Xrotation
					End Site
					{
						OFFSET 0.000000 0.000000 0.100000
					}
				}
			}
			JOINT RightUpLegEnd
			{
				OFFSET 0.000000 0.000000 0.000000
				CHANNELS 6 Xposition Yposition Zposition Zrotation Yrotation Xrotation
				End Site
				{
					OFFSET 0.000000 0.000000 0.099998
				}
			}
		}
	}
	JOINT LeftUpLeg
	{
		OFFSET 11.315674 0.000000 0.000000
		CHANNELS 6 Xposition Yposition Zposition Zrotation Yrotation Xrotation
		JOINT LeftLeg
		{
			OFFSET 0.000000 0.000000 -38.200321
			CHANNELS 6 Xposition Yposition Zposition Zrotation Yrotation Xrotation
			JOINT LeftFoot
			{
				OFFSET 0.000000 0.000000 -39.900856
				CHANNELS 6 Xposition Yposition Zposition Zrotation Yrotation Xrotation
				JOINT LeftToeBase
				{
					OFFSET 0.000000 -15.261658 0.000001
					CHANNELS 6 Xposition Yposition Zposition Zrotation Yrotation Xrotation
					JOINT LeftToeBaseEnd
					{
						OFFSET 0.000000 -7.539978 0.000001
						CHANNELS 6 Xposition Yposition Zposition Zrotation Yrotation Xrotation
						End Site
						{
							OFFSET 0.000000 0.000000 0.100000
						}
					}
				}
				JOINT LeftLegEnd
				{
					OFFSET 0.000000 0.000000 0.000000
					CHANNELS 6 Xposition Yposition Zposition Zrotation Yrotation Xrotation
					End Site
					{
						OFFSET 0.000000 0.000000 0.100000
					}
				}
			}
			JOINT LeftUpLegEnd
			{
				OFFSET 0.000000 0.000000 0.000000
				CHANNELS 6 Xposition Yposition Zposition Zrotation Yrotation Xrotation
				End Site
				{
					OFFSET 0.000000 0.000000 0.099998
				}
			}
		}
	}
}
MOTION
Frames: 2
Frame Time: 0.016667
16.203888 9.207703 88.141678 -11.152708 3.040720 -18.267930 0.000007 2.080081 8.814235 0.201971 -1.527876 11.022932 0.000004 -0.000002 8.844136 0.407154 0.138123 4.440523 -0.000002 0.000013 11.682276 4.365957 1.819425 6.222624 -0.000010 0.000033 11.746707 2.458647 1.535532 4.094577 -0.000011 -0.000029 17.658253 -4.489547 -6.123690 6.762619 -0.000000 -0.000010 5.101523 -3.053751 0.504758 -1.852678 0.000001 0.000021 5.101518 -1.002342 0.268354 -14.362995 0.000003 -0.000003 11.655074 0.000001 -0.000000 0.000000 -2.625400 -0.000024 11.175227 13.152600 -87.972420 0.196432 -0.000034 0.000000 10.434738 -26.072934 -66.430755 34.321397 0.000017 0.000011 29.628450 24.899053 3.076420 10.270916 -0.000025 -0.000074 22.857590 0.086175 20.116119 -7.552190 -2.867325 -2.944305 3.959572 32.633531 -12.963986 58.544864 0.000013 0.000015 3.350391 -3.390236 3.021805 -6.580655 -0.000006 0.000010 3.756495 -2.317146 2.140106 -4.549679 0.000002 0.000003 3.147333 -0.000000 -0.000005 0.000002 -0.086746 -2.345252 10.030933 -4.573203 26.205470 1.487635 -0.000023 0.000004 4.061106 0.821657 -0.000047 -0.000324 0.000011 -0.000007 3.248872 0.300042 0.000005 0.000252 0.000004 0.000003 2.639724 -0.000000 0.000002 -0.000000 0.104094 -0.006806 9.502975 1.078287 26.375416 2.031044 0.000012 -0.000024 4.568727 0.830190 -0.000019 -0.231621 -0.000003 -0.000005 3.655004 0.393805 0.000007 -0.194288 -0.000002 0.000002 2.741247 -0.000000 0.000001 0.000000 0.086792 2.267466 8.921745 10.133742 26.539583 4.400133 0.000005 -0.000006 4.061104 -1.227590 -0.039555 0.000600 -0.000014 -0.000010 3.654984 -0.455864 0.020874 0.009179 -0.000001 0.000002 2.741262 -0.000000 -0.000000 -0.000001 -0.173492 4.467257 7.977013 19.282379 24.912972 7.727517 -0.000001 -0.000001 3.350401 -2.205145 -0.000498 0.000122 0.000007 -0.000020 2.842748 -0.523247 -0.000000 0.027559 -0.000001 0.000002 2.639700 0.000000 0.000001 0.000000 -0.000010 -0.000005 0.000004 0.000000 -0.000004 0.000000 -0.000003 0.000057 -0.000014 0.000001 0.000000 0.000002 2.625431 0.000007 11.175217 -7.677566 84.508920 -0.192147 -0.000034 0.000006 10.813648 12.347400 72.943019 9.190515 -0.000029 0.000027 28.724810 -7.822033 -0.491814 39.032175 0.644348 0.328836 25.716133 -4.152942 -37.987012 -18.917370 2.867256 -2.944290 3.959549 -33.272816 11.458634 61.322552 0.000004 -0.000025 3.350393 0.293521 -0.290508 -0.592192 -0.000003 -0.000021 3.756529 0.203510 -0.202064 -0.409101 0.000014 0.000014 3.100016 -0.000002 0.000000 0.000001 0.086772 -2.345276 10.030914 -15.826645 -30.569113 31.704294 0.000003 0.000005 4.061105 0.789072 0.000001 0.000294 -0.000002 -0.000013 3.248886 0.272675 -0.000002 0.018599 0.000037 -0.000017 2.639720 0.000003 0.000000 -0.000001 -0.104114 -0.006756 9.502960 -11.379918 -34.690763 18.092852 0.000011 0.000010 4.568733 0.827641 -0.000009 0.000162 -0.000014 -0.000018 3.654992 0.279548 -0.000007 -0.006940 0.000008 -0.000013 2.741223 0.000002 -0.000000 0.000000 -0.086761 2.267451 8.921726 -1.978341 -36.884176 -1.788273 0.000011 0.000010 4.061138 -1.401296 0.000067 0.000278 0.000002 0.000087 3.654988 -0.310460 -0.000005 -0.000110 -0.000012 -0.000010 2.741255 0.000002 -0.000000 0.000000 0.173477 4.467220 7.977005 7.484822 -31.487076 -22.984350 0.000015 0.000027 3.350405 -2.037858 -0.034252 0.000840 -0.000015 0.000002 2.842770 -0.029782 0.018493 -0.000377 -0.000023 0.000001 2.639707 -0.000001 -0.000001 0.000001 0.000005 0.000012 0.000033 -0.000002 -0.000002 0.000000 0.000006 -0.000003 -0.000013 0.000001 -0.000000 -0.000000 -11.289921 -0.000010 -0.000019 -25.157192 8.166330 6.146033 0.000021 -0.000011 -38.200340 -1.006873 0.144719 8.175899 -0.000040 -0.000034 -39.900864 -20.026924 0.507580 32.885216 0.000007 -15.261744 0.000028 0.078711 2.447647 -21.185657 -0.000003 -7.370750 0.000001 0.000004 0.000001 0.000000 0.000004 -0.000056 0.000000 -0.000001 -0.000000 0.000002 -0.000020 -0.000007 -0.000005 0.000001 -0.000000 0.000000 11.315636 -0.000045 -0.000018 -2.445409 1.815545 10.323533 -0.000023 0.000007 -38.200310 -0.302926 0.107149 21.469571 -0.000012 -0.000043 -39.900864 10.608294 -5.120921 10.952827 -0.000030 -15.261714 0.000021 0.399574 -0.292699 -21.811929 -0.000033 -7.539978 0.000002 -0.000000 -0.000001 -0.000000 -0.000028 0.000001 0.000001 -0.000000 -0.000000 -0.000001 0.000002 0.000001 -0.000006 -0.000000 0.000001 0.000000 
16.140076 9.312927 88.137634 -11.318994 3.019297 -18.375792 0.000007 2.080097 8.814240 0.181477 -1.629320 11.053111 0.000007 0.000003 8.844142 0.391531 0.103114 4.453816 -0.000009 0.000002 11.682275 4.325143 1.819794 6.217621 -0.000041 0.000040 11.746695 2.431686 1.594098 4.016951 -0.000001 -0.000032 17.658274 -4.294977 -5.305434 6.889189 -0.000010 0.000016 5.101519 -3.092176 0.622669 -1.774593 0.000009 0.000058 5.101532 -1.044772 0.346029 -14.388231 -0.000012 0.000007 11.655088 -0.000001 -0.000000 0.000000 -2.625426 -0.000009 11.175205 13.510297 -88.023400 0.202562 -0.000061 -0.000002 10.434738 -32.082225 -64.385707 40.744544 0.000011 -0.000015 29.628433 22.886606 2.263282 12.226927 -0.000008 -0.000081 22.857590 0.492797 20.189184 -7.561496 -2.867332 -2.944229 3.959549 32.633513 -12.964000 58.544809 -0.000008 -0.000010 3.350365 -3.390247 3.021800 -6.580465 0.000014 0.000006 3.756502 -2.317159 2.140117 -4.549816 -0.000015 -0.000005 3.147339 0.000002 -0.000003 0.000001 -0.086754 -2.345272 10.030908 -4.656758 25.557120 1.195617 -0.000004 0.000030 4.061122 0.822011 -0.000007 -0.000324 -0.000046 0.000004 3.248891 0.300317 0.000008 0.000250 0.000005 -0.000007 2.639730 0.000000 0.000002 -0.000001 0.104103 -0.006774 9.502944 0.989127 25.873002 1.596227 -0.000037 0.000015 4.568753 0.830507 -0.000019 -0.233651 0.000010 0.000026 3.654993 0.394089 0.000006 -0.196040 -0.000007 -0.000006 2.741251 0.000001 -0.000000 0.000000 0.086784 2.267441 8.921722 10.080378 26.381642 3.915930 -0.000002 0.000024 4.061113 -1.227913 -0.088802 0.001657 -0.000002 0.000028 3.655008 -0.456045 0.046579 0.009052 0.000018 0.000059 2.741253 0.000000 0.000001 -0.000000 -0.173492 4.467215 7.976986 19.333621 25.130766 7.306268 -0.000010 0.000008 3.350415 -2.206949 -0.034242 0.001421 0.000010 0.000030 2.842749 -0.523284 0.018558 0.027355 -0.000027 0.000010 2.639713 -0.000002 0.000001 0.000001 0.000002 -0.000012 -0.000006 0.000001 0.000000 0.000001 0.000005 -0.000001 0.000004 0.000000 -0.000000 0.000003 2.625412 -0.000011 11.175240 -7.827753 84.790747 -0.205068 0.000000 0.000028 10.813610 19.911410 71.393638 17.136359 -0.000010 0.000015 28.724806 -6.926662 -0.551563 39.353460 0.644341 0.328894 25.716133 -3.794239 -37.523280 -18.817974 2.867294 -2.944290 3.959549 -33.202837 11.604867 61.042118 0.000004 -0.000017 3.350398 0.590034 -0.577961 -1.182585 -0.000004 -0.000012 3.756500 0.408479 -0.402659 -0.820599 -0.000012 -0.000010 3.100002 0.000002 0.000001 -0.000001 0.086780 -2.345284 10.030899 -15.590906 -29.928379 31.777841 -0.000003 -0.000012 4.061122 0.789616 0.000056 0.000299 0.000011 0.000001 3.248880 0.273199 0.000003 0.018574 0.000003 0.000054 2.639724 0.000001 0.000001 0.000001 -0.104099 -0.006760 9.502960 -11.211331 -34.158439 17.963560 -0.000006 0.000027 4.568734 0.828115 -0.000038 0.000162 -0.000003 0.000016 3.654969 0.279929 0.000001 -0.007005 0.000014 -0.000001 2.741252 0.000001 0.000000 0.000001 -0.086761 2.267485 8.921707 -1.901319 -36.467930 -2.163847 0.000003 0.000028 4.061100 -1.402362 0.000217 0.000275 0.000008 -0.000029 3.655012 -0.310961 -0.000003 -0.000110 0.000007 -0.000007 2.741268 0.000001 -0.000001 0.000000 0.173485 4.467258 7.977005 7.417559 -31.154330 -23.763135 0.000009 0.000018 3.350407 -2.037824 -0.000010 -0.000380 0.000015 0.000014 2.842747 -0.029751 0.000005 -0.000372 0.000003 0.000010 2.639704 -0.000001 -0.000002 -0.000001 0.000002 0.000009 0.000004 -0.000001 -0.000006 0.000001 0.000020 -0.000021 -0.000018 0.000001 0.000001 0.000002 -11.289959 -0.000011 0.000000 -25.105658 8.111443 6.190223 -0.000002 0.000014 -38.200317 -0.989322 0.141972 8.164916 -0.000016 -0.000051 -39.900867 -19.919412 0.589427 32.886514 0.000014 -15.261741 0.000026 0.056766 2.436086 -21.190971 0.000003 -7.370794 0.000001 0.000001 0.000000 0.000000 -0.000034 -0.000024 0.000000 0.000004 -0.000001 0.000003 -0.000030 -0.000003 0.000002 0.000001 0.000000 -0.000000 11.315651 -0.000117 0.000003 -2.402194 1.770359 10.382465 -0.000052 -0.000010 -38.200314 -0.296348 0.107164 21.503389 -0.000040 -0.000043 -39.900864 10.706205 -5.029409 10.830762 -0.000024 -15.261633 0.000022 0.378476 -0.287766 -21.778956 -0.000032 -7.540038 0.000002 -0.000000 0.000000 -0.000000 -0.000036 -0.000001 0.000001 0.000000 -0.000001 0.000002 -0.000027 -0.000001 -0.000011 0.000000 -0.000000 0.000000 
